<?xml version="1.0" standalone="no"?>
<!DOCTYPE svg PUBLIC "-//W3C//DTD SVG 20010904//EN"
 "http://www.w3.org/TR/2001/REC-SVG-20010904/DTD/svg10.dtd">
<svg version="1.0" xmlns="http://www.w3.org/2000/svg"
 width="808.000000pt" height="1536.000000pt" viewBox="0 0 808.000000 1536.000000"
 preserveAspectRatio="xMidYMid meet">

<g transform="translate(0.000000,1536.000000) scale(0.100000,-0.100000)"
fill="#000000" stroke="none">
<path d="M3965 15270 c-111 -29 -148 -41 -196 -65 -173 -88 -256 -171 -298
-297 -27 -80 -64 -322 -89 -568 -7 -70 -9 -75 -32 -78 -14 -2 -29 -7 -35 -12
-5 -4 -30 -11 -55 -15 -68 -11 -158 -60 -166 -89 -3 -14 -11 -27 -18 -29 -8
-3 -16 -32 -19 -68 -8 -68 -19 -88 -51 -90 -11 -1 -4 -5 17 -10 32 -8 49 -4
105 20 133 57 199 90 209 103 6 7 22 49 35 93 l25 80 88 46 c103 54 183 82
315 109 259 54 490 29 763 -81 151 -60 163 -69 171 -116 4 -21 14 -62 22 -91
14 -50 17 -53 82 -86 142 -71 254 -100 292 -76 11 7 8 10 -16 10 -41 0 -56 20
-65 87 -4 31 -12 59 -17 62 -5 3 -12 17 -15 31 -8 34 -109 85 -200 102 -43 8
-72 19 -78 29 -4 9 -18 92 -29 185 -43 338 -69 457 -118 535 -110 172 -452
325 -627 279z"/>
<path d="M3925 14133 c-99 -13 -213 -39 -314 -72 -117 -39 -342 -145 -461
-218 -36 -22 -126 -71 -200 -110 -220 -114 -354 -201 -465 -301 l-60 -54 -205
6 c-221 7 -634 33 -689 43 -19 3 -70 33 -118 70 -46 36 -117 83 -156 106 -70
40 -75 41 -177 45 -107 4 -160 -3 -285 -33 -267 -65 -531 -167 -633 -243 -105
-80 -89 -221 38 -335 95 -85 262 -121 565 -121 325 -1 353 11 643 262 45 38
80 61 90 58 9 -2 93 -23 187 -47 95 -24 177 -51 186 -60 10 -10 21 -13 26 -8
5 5 59 -8 130 -31 97 -33 122 -46 131 -65 6 -13 30 -34 52 -45 98 -50 208 -32
279 45 23 25 41 48 41 52 1 5 5 28 10 53 8 42 0 123 -15 163 -8 19 44 73 141
147 51 40 293 190 305 190 4 0 -33 -64 -82 -142 -104 -166 -236 -428 -274
-543 -68 -209 -102 -402 -91 -521 7 -78 28 -147 70 -234 l27 -55 -23 -19 c-19
-15 -34 -17 -83 -13 -33 3 -83 13 -112 21 -51 16 -51 17 -83 94 -43 102 -128
359 -136 412 -4 23 -12 44 -19 46 -7 3 -57 -15 -110 -40 -54 -25 -101 -46
-105 -46 -4 0 -27 66 -51 148 -52 179 -80 246 -89 217 -3 -11 -27 -63 -52
-115 -64 -132 -98 -248 -105 -352 -6 -91 -10 -97 -66 -98 -10 0 -48 -14 -85
-31 -37 -18 -121 -56 -187 -86 -66 -30 -122 -57 -125 -60 -14 -14 67 16 155
57 204 96 256 112 319 96 31 -8 34 -26 5 -26 -41 0 -164 -42 -251 -86 -81 -41
-113 -64 -89 -64 29 0 3 -20 -67 -53 -87 -41 -93 -42 -507 -83 l-270 -26 -26
-30 c-27 -32 -77 -47 -162 -48 -55 0 -55 -16 -1 -26 43 -8 142 17 182 46 19
13 59 22 137 30 61 6 180 20 265 30 85 10 187 22 225 25 50 5 98 19 170 50
l100 44 8 -31 c5 -17 6 -36 4 -42 -3 -7 -36 -24 -73 -38 -103 -39 -818 -268
-838 -268 -6 0 -24 -7 -39 -15 -16 -8 -59 -24 -96 -35 -71 -21 -88 -34 -115
-87 -22 -43 -20 -97 5 -168 28 -81 42 -105 79 -140 26 -25 39 -30 83 -30 32 0
72 9 104 23 28 12 63 22 76 22 25 0 47 8 572 195 165 59 315 112 334 118 32
11 35 9 63 -26 19 -24 43 -40 69 -47 33 -9 39 -15 39 -38 0 -15 -9 -47 -20
-70 -11 -24 -26 -67 -34 -95 -8 -29 -30 -97 -49 -152 -48 -137 -87 -299 -97
-403 -20 -187 -5 -141 35 108 17 107 53 231 120 420 39 110 73 175 59 115 -3
-16 -13 -43 -21 -60 -8 -16 -21 -49 -28 -72 -17 -57 -11 -56 126 12 126 64
189 117 216 181 10 24 21 44 24 44 3 0 18 -89 33 -197 34 -246 77 -515 112
-696 l27 -139 -40 -41 c-130 -137 -302 -407 -354 -557 -12 -36 -27 -71 -32
-78 -19 -25 -55 29 -116 172 -90 216 -144 395 -164 551 -3 21 -4 17 -5 -15 -3
-85 25 -225 76 -376 33 -96 55 -183 62 -240 6 -49 38 -276 71 -504 33 -228 66
-464 75 -525 14 -103 38 -199 134 -535 40 -140 110 -428 131 -538 6 -34 9 -87
6 -117 -3 -30 -1 -57 4 -60 12 -8 10 -139 -6 -260 -7 -55 -13 -92 -14 -82 0 9
-8 17 -16 17 -8 0 -15 4 -15 9 0 5 -23 8 -50 7 -42 -1 -50 2 -50 16 0 11 -7
18 -17 18 -15 0 -16 -2 -3 -10 10 -6 11 -10 3 -10 -20 0 -15 -27 12 -70 14
-22 25 -43 25 -47 0 -3 8 -15 17 -25 26 -29 27 -57 3 -51 -54 14 -133 161
-159 295 -6 29 -24 118 -41 198 -49 238 -85 613 -100 1035 -10 292 -22 426
-75 839 -14 109 -25 242 -26 295 l-1 96 -13 -50 c-53 -211 -110 -493 -124
-615 -5 -47 -15 -128 -22 -180 -18 -146 6 -303 64 -417 26 -50 128 -163 148
-163 23 0 40 -78 49 -213 13 -201 19 -262 35 -347 8 -41 17 -106 20 -145 10
-99 51 -296 82 -390 36 -109 77 -179 146 -250 63 -63 106 -140 107 -190 1 -17
-2 -106 -6 -200 -12 -303 25 -450 153 -602 29 -35 43 -61 43 -81 0 -29 0 -29
-71 -34 -62 -5 -74 -9 -104 -38 l-33 -32 -28 19 c-26 17 -50 18 -301 15 -314
-3 -336 -7 -370 -67 -49 -87 -18 -248 52 -267 17 -5 162 -12 323 -15 194 -4
290 -9 283 -16 -6 -6 -107 -9 -268 -8 -141 1 -254 -2 -249 -6 4 -4 112 -10
241 -13 161 -3 238 -9 246 -17 9 -9 4 -21 -20 -52 -33 -41 -33 -41 -104 -42
-40 0 -92 -4 -117 -9 -34 -7 -23 -8 47 -4 50 2 93 1 95 -4 1 -5 17 -5 34 0 24
6 53 34 117 116 46 59 116 143 153 187 239 277 286 337 312 402 34 82 61 105
133 107 l54 1 -2 -53 c-2 -51 -5 -55 -105 -170 -57 -64 -148 -173 -203 -242
-54 -69 -115 -145 -134 -170 -58 -72 -192 -253 -202 -272 -17 -31 1 -20 52 33
28 29 54 48 58 43 4 -5 20 -47 36 -94 27 -84 27 -86 15 -182 -12 -86 -11 -103
5 -160 9 -35 29 -88 43 -118 25 -51 27 -68 34 -253 10 -271 26 -329 113 -405
32 -29 89 -52 127 -52 31 0 68 -23 73 -44 6 -31 13 -684 7 -728 -3 -27 -10
-39 -26 -44 -44 -13 -211 -110 -241 -140 -39 -39 -50 -83 -31 -127 9 -19 15
-25 15 -15 1 27 73 73 167 107 244 89 495 38 498 -101 1 -36 -3 -45 -32 -64
-43 -30 -153 -54 -244 -54 -40 0 -83 -3 -95 -6 -20 -6 -21 -9 -10 -33 7 -14
11 -45 9 -67 -2 -32 -8 -44 -28 -52 -24 -12 -24 -12 -22 -154 l2 -143 3 143
c3 131 5 142 22 142 25 0 33 -55 30 -218 -2 -168 21 -253 56 -206 13 18 15 18
57 -3 42 -20 42 -21 19 -30 l-24 -10 22 -20 c20 -18 24 -39 36 -164 7 -79 16
-151 20 -160 7 -19 53 -31 93 -24 15 3 45 7 67 9 46 4 52 16 54 125 l1 63 27
-7 c16 -4 28 -7 29 -8 0 -1 11 -17 24 -36 23 -33 24 -41 27 -275 2 -133 8
-419 12 -636 9 -381 10 -398 34 -475 111 -355 415 -606 812 -669 55 -8 115
-18 134 -20 55 -8 308 40 386 72 200 83 271 130 396 259 115 119 188 256 227
428 19 81 21 133 26 525 3 239 8 511 12 604 7 164 8 170 33 197 14 15 38 30
54 33 l27 6 0 -89 c0 -59 4 -91 13 -97 6 -5 47 -9 89 -9 58 0 81 4 94 17 22
22 33 85 34 194 0 80 3 96 25 128 18 27 21 36 10 36 -25 0 -16 17 13 25 15 3
36 14 46 23 14 13 20 14 23 5 8 -23 20 -13 36 30 11 28 18 96 23 209 6 141 9
168 23 171 14 4 14 5 0 6 -21 1 -36 100 -19 130 8 16 8 21 -2 21 -71 2 -228
22 -272 35 -106 31 -132 102 -64 172 45 46 115 67 223 67 114 0 211 -24 320
-80 l85 -43 0 39 c0 26 -8 48 -25 68 -25 30 -122 93 -207 133 -43 20 -47 26
-53 68 -8 50 4 642 14 733 l6 57 65 -142 c36 -78 83 -178 105 -222 38 -76 43
-81 90 -98 93 -35 140 -41 226 -29 86 13 147 36 192 74 34 29 90 175 113 296
33 174 15 306 -128 922 -48 209 -51 227 -44 254 5 22 12 26 41 26 l35 0 0 91
0 91 78 -6 c49 -3 68 -2 52 3 -14 5 -59 9 -101 10 -62 1 -81 5 -104 23 l-28
21 13 -22 c6 -13 27 -29 46 -37 29 -12 34 -19 34 -49 0 -18 -4 -36 -8 -39 -5
-3 -40 0 -79 6 l-71 10 -113 147 c-157 203 -303 379 -501 605 -21 24 -27 41
-28 79 l0 47 59 0 c33 0 67 -3 76 -7 18 -6 65 -96 65 -123 0 -8 65 -91 145
-185 79 -93 188 -224 242 -290 62 -76 99 -113 101 -103 5 25 31 28 252 29 113
0 214 4 225 9 12 5 -78 9 -222 9 -150 1 -244 5 -248 11 -4 7 68 10 207 11 287
1 372 8 399 35 11 12 22 34 25 50 20 129 15 163 -36 224 l-29 35 -278 7 c-265
6 -279 6 -305 -13 -27 -19 -28 -19 -46 -1 -11 11 -40 27 -66 37 -36 14 -53 28
-71 60 -34 58 -32 106 6 169 45 73 79 170 85 240 2 34 6 153 8 266 4 231 14
279 72 340 40 42 41 46 12 54 -15 4 -19 9 -11 13 26 18 113 168 113 197 0 2
-15 7 -33 10 -48 9 -73 41 -96 125 -53 192 -50 284 19 561 42 170 160 590 184
658 9 24 32 171 51 325 36 284 129 922 144 987 5 19 21 76 36 127 37 127 27
149 -15 33 -45 -127 -133 -327 -154 -351 -9 -11 -21 -17 -25 -14 -5 3 -21 41
-36 84 -43 131 -186 359 -324 518 -39 46 -71 91 -71 100 0 10 11 77 25 148 44
227 103 585 121 733 10 78 20 142 23 142 3 0 18 -22 32 -48 61 -108 85 -131
185 -179 52 -24 99 -43 105 -41 5 2 -2 25 -17 53 -14 28 -34 78 -44 113 l-17
62 26 6 c38 9 100 41 153 79 l47 34 98 -33 c54 -19 175 -61 268 -94 94 -33
233 -81 310 -108 77 -26 158 -56 181 -66 22 -10 54 -18 70 -18 17 0 49 -9 73
-21 62 -30 111 -29 160 4 33 22 43 36 55 79 25 88 29 158 12 212 -8 27 -13 53
-11 56 8 13 -29 37 -80 53 -27 8 -89 32 -137 51 -48 20 -94 36 -102 36 -8 0
-50 11 -93 24 -43 13 -118 36 -168 51 -49 15 -121 37 -158 51 -38 13 -75 24
-84 24 -9 0 -34 9 -57 19 -23 11 -80 31 -128 46 -48 15 -94 35 -103 45 -14 16
-14 20 2 49 10 17 20 30 23 28 94 -50 188 -86 242 -91 75 -8 358 -41 516 -61
82 -10 120 -20 138 -34 44 -35 179 -54 179 -26 0 5 -22 13 -50 17 -77 11 -95
17 -95 33 0 28 -45 42 -165 54 -537 52 -573 57 -577 77 -2 13 -51 37 -93 47
-5 1 -13 10 -17 19 -19 47 -330 168 -398 155 l-25 -5 25 20 c21 17 36 19 97
16 77 -4 76 4 -3 22 -57 13 -64 21 -64 77 0 97 -50 259 -125 401 l-33 64 -15
-28 c-13 -28 -78 -228 -93 -287 -9 -37 -20 -41 -52 -19 -43 31 -146 82 -163
82 -12 0 -27 -37 -59 -147 -55 -188 -81 -264 -115 -335 -25 -53 -32 -59 -81
-78 -86 -32 -129 -35 -174 -15 -22 10 -40 21 -40 25 0 4 11 27 25 52 86 153
93 348 24 616 -50 195 -167 451 -311 680 -32 51 -65 107 -73 123 l-16 29 68
-41 c171 -105 309 -207 352 -260 22 -28 22 -33 11 -75 -37 -131 31 -262 154
-295 80 -22 200 15 238 73 11 17 47 33 139 62 68 21 131 42 141 47 29 15 330
89 361 89 22 0 47 -15 96 -58 122 -108 226 -185 286 -213 82 -39 216 -53 415
-46 178 7 260 19 345 49 195 70 309 324 176 392 -16 9 -31 22 -34 31 -4 8 -13
15 -21 15 -8 0 -27 11 -43 24 -38 32 -200 99 -318 131 -27 7 -70 20 -95 28
-130 41 -231 60 -347 65 -120 4 -123 4 -187 -26 -70 -33 -108 -59 -196 -133
-38 -32 -70 -50 -105 -57 -61 -14 -279 -29 -610 -42 -137 -6 -256 -12 -264
-15 -7 -3 -39 19 -71 49 -107 99 -299 221 -505 324 -55 27 -125 66 -155 86
-98 67 -345 182 -487 229 -197 65 -409 91 -568 70z m33 -215 c-2 -6 -20 -13
-39 -15 -30 -3 -123 -20 -214 -39 -27 -6 -28 -5 -15 9 8 9 51 23 95 31 150 29
178 31 173 14z m3212 -458 c0 -5 -7 -7 -15 -4 -8 4 -15 8 -15 10 0 2 7 4 15 4
8 0 15 -4 15 -10z m273 -29 c228 -48 481 -138 499 -177 16 -34 2 -71 -48 -124
-70 -75 -159 -128 -245 -146 -100 -22 -406 -25 -508 -5 l-73 15 5 50 c10 88
47 330 55 351 3 11 7 27 7 35 0 9 9 14 20 13 11 -1 23 4 27 11 9 16 128 5 261
-23z m-6519 1 c16 -79 35 -245 34 -302 0 -36 4 -76 9 -90 17 -46 11 -53 -57
-67 -46 -10 -104 -13 -200 -9 -187 7 -273 22 -344 59 -74 39 -158 115 -181
163 -27 57 -15 81 59 114 145 66 501 157 618 158 54 1 57 0 62 -26z m5326
-1032 c0 -5 -4 -10 -10 -10 -5 0 -10 5 -10 10 0 6 5 10 10 10 6 0 10 -4 10
-10z m-3090 -185 c66 -34 118 -142 106 -218 -19 -120 -115 -198 -241 -199
-154 -1 -266 145 -211 276 29 70 108 135 191 157 42 11 118 3 155 -16z m1989
8 c103 -33 162 -113 162 -219 0 -148 -152 -240 -315 -192 -141 42 -193 241
-93 355 61 69 146 89 246 56z m-3013 -113 c7 -25 10 -48 6 -51 -9 -8 -160 -75
-189 -83 -18 -6 -23 0 -36 36 -33 91 -37 83 60 116 48 17 101 30 117 29 25 -2
31 -8 42 -47z m134 10 c0 -39 -18 -48 -30 -15 -7 19 -6 30 3 39 17 19 27 10
27 -24z m-312 -325 c-2 -23 -18 -37 -18 -16 0 5 -3 16 -6 25 -4 11 -1 16 10
16 11 0 15 -8 14 -25z m2407 -409 c148 -27 252 -56 363 -100 l105 -42 17 -65
c62 -237 75 -352 75 -679 -1 -295 -15 -408 -74 -583 -42 -122 -83 -191 -165
-272 -88 -87 -213 -155 -354 -192 -129 -34 -369 -38 -502 -10 -247 54 -422
179 -514 369 -86 178 -120 383 -119 723 0 253 21 464 58 603 14 52 25 96 25
98 0 7 98 50 190 84 84 31 245 67 360 80 114 13 431 5 535 -14z m-1168 -228
c-96 -552 -60 -1059 99 -1407 62 -135 155 -220 316 -288 159 -66 221 -78 438
-78 173 0 205 3 290 24 183 46 294 105 395 208 91 92 153 251 207 528 31 164
32 179 32 420 0 210 -3 274 -23 400 -12 83 -25 167 -28 188 -3 20 -2 37 2 37
9 0 275 -178 410 -275 55 -39 174 -123 265 -185 236 -163 330 -264 499 -538
128 -207 148 -287 117 -455 -52 -276 -282 -806 -610 -1410 -31 -56 -65 -143
-96 -245 -108 -353 -270 -848 -286 -874 -4 -5 -21 35 -39 89 -39 119 -92 226
-151 310 -83 117 -178 134 -484 89 -399 -59 -590 -59 -983 -1 -160 24 -301 24
-359 2 -63 -25 -139 -110 -184 -207 -19 -41 -40 -84 -46 -94 -6 -11 -25 -63
-44 -115 -18 -53 -35 -89 -38 -81 -25 70 -144 436 -231 710 -94 294 -116 350
-175 460 -229 424 -383 752 -480 1017 -92 254 -125 390 -118 502 3 60 11 84
53 167 83 165 241 389 355 505 39 39 127 107 220 169 85 57 182 124 215 149
78 61 448 311 459 311 4 0 6 -15 3 -32z m2665 -3348 c-4 -25 -9 -30 -31 -30
-35 0 -39 5 -33 35 3 20 10 25 36 25 30 0 32 -2 28 -30z m48 -46 c0 -41 -4
-63 -10 -59 -5 3 -10 33 -10 66 0 33 4 59 10 59 6 0 10 -29 10 -66z m10 -724
l0 -360 -139 0 -139 0 -12 68 c-11 59 -10 76 4 126 15 51 21 59 54 73 69 28
72 34 72 153 0 101 -1 108 -25 130 -29 28 -30 36 -9 112 l17 58 88 0 89 0 0
-360z m-3657 286 c5 -14 -10 -36 -25 -36 -4 0 -8 8 -8 18 0 31 23 44 33 18z
m4 -72 c-3 -3 -12 -4 -19 -1 -8 3 -5 6 6 6 11 1 17 -2 13 -5z m84 -401 c14
-21 30 -50 37 -65 11 -26 10 -28 -13 -28 -15 0 -25 6 -25 14 0 29 -29 46 -58
36 -25 -10 -26 -9 -8 5 11 8 23 15 28 15 4 0 5 7 2 15 -4 9 0 15 7 15 9 1 7 6
-5 15 -16 12 -17 15 -4 15 8 0 26 -17 39 -37z m-283 -105 c-3 -124 -18 -149
-32 -55 -11 74 0 167 20 167 12 0 14 -19 12 -112z m4003 7 c9 -51 5 -106 -13
-169 -10 -31 -13 -35 -19 -20 -9 24 -11 216 -3 239 10 25 25 3 35 -50z m-209
-544 c-2 -13 2 -28 10 -32 8 -6 0 -9 -23 -9 -30 0 -38 4 -43 23 -11 42 -8 48
27 45 27 -3 32 -6 29 -27z m21 -6 c-3 -9 -8 -14 -10 -11 -3 3 -2 9 2 15 9 16
15 13 8 -4z m231 -275 c14 -14 14 -172 0 -177 -6 -2 -23 8 -39 23 l-29 27 27
21 c32 26 35 56 6 82 l-21 19 7 -37 c6 -30 4 -38 -13 -47 -17 -9 -26 -4 -62
35 -42 46 -43 57 -5 67 30 8 117 -1 129 -13z m-3954 1 c0 -4 -19 -29 -41 -55
-39 -44 -43 -46 -59 -31 -11 10 -16 24 -12 37 3 15 1 19 -9 16 -25 -8 -23 -41
4 -63 l26 -20 -30 -32 c-16 -18 -31 -33 -34 -33 -9 0 -5 138 5 164 9 25 14 26
80 26 38 0 70 -4 70 -9z m419 -284 c31 -112 75 -193 146 -267 l63 -65 31 -145
c21 -94 30 -159 26 -185 -3 -26 -2 -33 3 -20 8 16 10 14 15 -14 4 -19 7 -41 7
-50 0 -14 -2 -14 -10 -1 -12 17 -13 21 21 -140 27 -131 34 -151 53 -144 9 3
21 -6 32 -25 10 -17 24 -31 31 -31 14 0 35 -35 26 -44 -3 -3 -2 -6 4 -6 6 0
26 -24 44 -52 30 -47 125 -165 154 -193 156 -147 304 -235 461 -275 124 -32
354 -45 540 -32 172 13 257 28 347 62 64 24 217 122 256 164 14 14 28 26 32
26 11 0 -37 -172 -67 -244 -15 -34 -27 -71 -28 -83 0 -13 -5 -23 -10 -23 -4 0
-5 -8 -2 -17 4 -10 4 -14 0 -10 -4 4 -34 -57 -66 -135 -32 -78 -66 -147 -75
-152 -87 -50 -330 -129 -460 -150 -212 -34 -515 64 -901 291 l-93 55 -50 101
c-90 178 -176 303 -369 527 -381 445 -498 603 -519 700 -22 101 24 310 103
475 40 85 169 298 205 339 15 17 16 12 22 -70 3 -49 16 -124 28 -167z m3206
-78 c90 -176 141 -394 116 -503 -21 -93 -118 -223 -536 -712 -143 -168 -251
-321 -316 -446 -28 -56 -66 -114 -83 -130 -17 -15 -27 -28 -23 -28 11 0 -53
-55 -81 -69 -12 -7 -28 -9 -35 -5 -6 4 -9 3 -4 -1 10 -11 -69 -57 -99 -57 -13
0 -21 -4 -18 -9 3 -5 -2 -9 -11 -9 -18 0 -18 2 22 117 14 40 29 70 34 67 5 -3
12 3 15 13 8 23 43 103 55 125 5 10 9 30 10 45 1 45 24 96 43 99 21 3 19 1 32
39 8 26 14 30 47 30 20 0 37 2 37 5 0 3 9 6 20 6 11 0 20 -4 20 -8 0 -4 7 -8
15 -8 8 0 15 7 15 15 0 9 11 32 24 53 33 50 58 126 110 332 25 96 54 211 66
255 25 97 40 203 28 207 -8 3 15 166 38 281 3 16 35 61 70 100 110 122 184
307 184 461 l0 71 75 -115 c42 -63 100 -163 130 -221z m-3446 -914 c52 -65 56
-74 62 -140 4 -38 10 -77 14 -86 4 -11 -2 -21 -18 -32 -20 -13 -32 -14 -67 -5
-33 9 -44 8 -50 -3 -19 -30 -30 47 -30 203 0 185 -5 181 89 63z m3842 29 c30
-9 59 -20 64 -24 6 -4 36 -15 68 -24 31 -9 57 -20 57 -24 0 -4 11 -62 25 -130
14 -68 25 -129 25 -135 0 -8 -28 1 -75 24 -60 29 -94 38 -172 47 -55 6 -128 7
-166 3 -38 -4 -70 -5 -72 -2 -4 8 -45 236 -45 255 0 20 19 23 136 25 66 1 119
-4 155 -15z"/>
<path d="M6061 10100 c0 -60 15 -164 18 -130 1 12 4 11 12 -3 15 -26 1 -108
-18 -105 -12 2 -21 -23 -38 -107 -31 -144 -53 -206 -121 -334 -58 -108 -97
-161 -191 -260 l-53 -55 0 -68 c0 -37 4 -68 9 -68 19 0 128 81 141 105 7 14
18 25 23 25 5 0 0 16 -12 36 -27 46 -28 84 -1 84 23 0 60 29 60 47 0 7 4 13 8
13 4 0 16 14 25 30 19 32 54 40 63 15 4 -8 10 -12 15 -9 5 3 6 11 2 17 -5 8
-2 8 9 -1 12 -10 18 -9 28 3 7 8 8 15 2 15 -5 0 -12 11 -14 25 -3 13 -1 22 3
19 5 -3 9 -1 9 4 0 4 9 18 20 30 11 12 19 27 18 34 -2 7 5 12 14 12 10 -1 16
2 13 6 -3 4 1 10 9 13 20 8 39 98 31 149 -7 48 8 103 26 92 20 -12 1 111 -31
206 -15 47 -30 102 -33 123 -3 21 -15 53 -26 70 l-21 32 1 -65z"/>
<path d="M2048 10053 c-2 -26 -1 -68 3 -93 5 -35 7 -24 8 48 1 98 -5 123 -11
45z"/>
<path d="M2062 9850 c0 -14 2 -19 5 -12 2 6 2 18 0 25 -3 6 -5 1 -5 -13z"/>
<path d="M6065 9390 c3 -5 -1 -10 -9 -10 -20 0 -20 -7 -2 -25 12 -12 15 -12
20 1 9 24 7 44 -5 44 -5 0 -7 -4 -4 -10z"/>
<path d="M5071 4114 c0 -11 3 -14 6 -6 3 7 2 16 -1 19 -3 4 -6 -2 -5 -13z"/>
<path d="M1148 12203 c6 -2 18 -2 25 0 6 3 1 5 -13 5 -14 0 -19 -2 -12 -5z"/>
<path d="M985 12190 l-40 -7 40 -1 c22 0 63 3 90 8 l50 7 -50 0 c-27 0 -68 -3
-90 -7z"/>
<path d="M7040 12190 c30 -5 73 -8 95 -8 35 1 33 2 -15 8 -30 5 -73 8 -95 8
-35 -1 -33 -2 15 -8z"/>
<path d="M800 12170 c-22 -5 -6 -6 40 -3 41 3 77 7 79 9 7 7 -83 2 -119 -6z"/>
<path d="M7208 12173 c12 -2 30 -2 40 0 9 3 -1 5 -23 4 -22 0 -30 -2 -17 -4z"/>
<path d="M658 12153 c12 -2 32 -2 45 0 12 2 2 4 -23 4 -25 0 -35 -2 -22 -4z"/>
<path d="M7418 12153 c12 -2 32 -2 45 0 12 2 2 4 -23 4 -25 0 -35 -2 -22 -4z"/>
<path d="M439 12137 c10 -13 19 -13 166 6 17 2 -17 5 -74 6 -85 1 -101 -1 -92
-12z"/>
<path d="M7535 12140 c72 -12 143 -12 150 0 4 6 -30 10 -97 9 -88 -1 -96 -3
-53 -9z"/>
<path d="M212 12070 c0 -8 4 -26 8 -40 6 -20 8 -21 8 -5 0 11 -3 29 -8 40 -5
12 -8 14 -8 5z"/>
<path d="M6620 9791 c0 -23 -11 -131 -25 -239 -32 -257 -52 -467 -65 -677 -10
-181 -13 -375 -5 -375 24 0 128 110 164 173 46 80 85 266 76 362 -3 39 -10
115 -14 170 -5 55 -13 123 -20 150 -6 28 -29 142 -51 255 -40 204 -60 265 -60
181z"/>
<path d="M1795 5415 c3 -33 9 -63 13 -66 4 -3 23 -1 42 5 l35 10 -38 4 c-46 4
-45 24 2 33 57 12 61 29 8 29 -40 0 -49 4 -58 23 -7 16 -8 6 -4 -38z"/>
</g>
</svg>
